<svg width="237" height="196" viewBox="0 0 237 196" fill="none" xmlns="http://www.w3.org/2000/svg">
<g clip-path="url(#clip0_98705_41)">
<path d="M84.0115 195.243C130.396 195.243 167.997 157.642 167.997 111.257C167.997 64.8733 130.396 27.2715 84.0115 27.2715C37.6273 27.2715 0.0255127 64.8733 0.0255127 111.257C0.0255127 157.642 37.6273 195.243 84.0115 195.243Z" fill="#020304"/>
<path d="M169.68 77.4039C175.73 92.7062 177.152 109.448 173.771 125.552C170.39 141.656 162.354 156.412 150.661 167.989C162 168.299 173.285 166.303 183.83 162.121C226.972 145.069 248.121 96.2577 231.069 53.1408C214.016 10.0239 165.218 -11.1458 122.089 5.90214C111.532 10.0564 101.931 16.3149 93.8696 24.297C110.319 24.7504 126.272 30.0251 139.75 39.4663C153.227 48.9075 163.635 62.0993 169.68 77.4039Z" fill="#6EC7DC"/>
<path d="M96.2779 75.4552C99.3234 73.4363 100.698 70.149 99.3483 68.1128C97.9985 66.0765 94.4353 66.0625 91.3898 68.0813C88.3442 70.1002 86.9695 73.3875 88.3193 75.4238C89.6691 77.46 93.2323 77.4741 96.2779 75.4552Z" fill="#FFDB13"/>
<path d="M110.618 80.5574C114.081 78.5579 115.626 74.7491 114.067 72.0501C112.509 69.3511 108.438 68.784 104.975 70.7835C101.512 72.7829 99.9679 76.5918 101.526 79.2908C103.084 81.9898 107.155 82.5568 110.618 80.5574Z" fill="#FFDB13"/>
<path d="M126.986 100.245C131.246 98.4914 133.736 94.7298 132.547 91.8437C131.359 88.9576 126.942 88.0398 122.683 89.7938C118.423 91.5478 115.933 95.3094 117.121 98.1955C118.31 101.082 122.726 101.999 126.986 100.245Z" fill="#FFDB13"/>
<path d="M133.329 124.913C141.405 122.858 146.747 116.461 145.262 110.625C143.777 104.789 136.026 101.725 127.95 103.78C119.874 105.836 114.531 112.233 116.016 118.069C117.502 123.904 125.253 126.969 133.329 124.913Z" fill="#FFDB13"/>
<path d="M121.159 88.1985C125.311 85.8013 127.478 81.7804 125.998 79.2175C124.519 76.6547 119.953 76.5205 115.801 78.9177C111.649 81.315 109.482 85.3359 110.962 87.8987C112.442 90.4615 117.007 90.5958 121.159 88.1985Z" fill="#FFDB13"/>
<path d="M22.1087 119.237C24.2334 110.526 37.5079 97.9063 58.3546 87.109C73.074 79.4859 80.7013 78.3981 86.5992 78.517C95.0255 78.687 100.027 81.3088 101.544 82.1671C103.596 83.3229 108.861 86.3824 112.137 92.8752C113.255 95.0975 116.14 100.813 114.372 107.467C112.796 113.416 108.423 116.726 104.599 119.59C101.715 121.792 98.441 123.428 94.949 124.413C92.5354 125.084 90.1303 125.722 87.1814 125.004C85.1841 124.489 83.3319 123.522 81.7679 122.178C79.5838 120.321 79.7027 119.203 77.5186 117.355C76.0627 116.14 74.3842 115.221 72.5768 114.648C69.3114 113.535 65.79 113.413 62.4551 114.296C58.7243 115.303 56.383 117.321 54.5728 118.885C52.325 120.822 52.3377 121.468 46.6863 128.182C43.7416 131.675 43.0234 132.355 42.2161 133.005C40.151 134.675 37.7204 136.638 34.0958 136.889C31.3652 137.045 28.664 136.256 26.4472 134.654C23.613 132.529 22.6611 129.695 22.198 128.28C21.4132 125.32 21.3826 122.212 22.1087 119.237Z" fill="#FFDB13"/>
<path d="M55.1352 64.0182C53.7477 64.4276 52.2692 64.8825 50.7225 65.3602C51.7916 61.5161 51.0864 58.0587 48.5389 55.9888C44.5356 52.7361 33.1398 53.6914 29.6596 60.6518C28.6588 62.9036 29.5004 64.7233 31.4338 64.928C29.8643 58.9003 43.8077 53.2365 47.8565 57.3308C49.9491 59.4462 49.244 63.0174 47.5153 66.4293C44.4218 67.5211 41.3056 68.7266 38.5306 70.0459C39.5542 66.6112 40.9417 62.5624 41.8515 59.9466C42.4429 58.4454 43.239 58.1724 43.239 58.1724H40.5322C40.1683 58.1724 39.8499 58.3999 39.7589 58.7411C38.6443 62.1303 36.6427 68.3399 35.7101 71.5016C32.7986 73.1621 30.6149 74.9363 29.8643 76.8015C28.0901 81.1687 37.8482 81.8511 44.1034 75.6187C47.1059 72.7982 49.1985 69.7047 50.2903 66.7477C51.8598 66.2246 53.4065 65.7241 54.885 65.2465L55.1352 64.0182ZM41.9652 73.8672C37.507 78.28 29.978 79.6902 31.5248 76.6878C32.1617 75.4595 33.4809 74.2767 35.2551 73.1394C34.6637 75.5505 35.0732 76.5285 37.1886 76.2328C37.0748 75.6187 37.4615 73.799 38.0984 71.5471C40.6232 70.2734 43.603 69.0906 46.6737 67.9987C45.2634 70.3416 43.4892 72.5025 41.9652 73.8672Z" fill="white"/>
<path d="M58.0945 59.9921H58.049L56.8208 59.9694C56.4796 59.9694 56.1611 60.1741 56.0246 60.5153C55.7517 61.2432 55.456 61.9938 55.0921 62.9264H57.4804C57.6169 62.5852 57.8216 62.1757 58.0263 61.7891C58.0945 61.6526 58.1628 61.5161 58.2538 61.4024C58.6404 60.72 59.0954 60.1286 59.5275 60.0376L58.0945 59.9921ZM53.9548 73.3441C53.9775 73.1166 54.0002 72.8664 54.0457 72.6162C54.0685 72.6162 54.0685 72.5935 54.0685 72.5707C54.114 72.1385 54.2504 71.6154 54.4779 70.9557C54.4779 70.933 54.4779 70.9102 54.5007 70.8648C55.0238 69.2043 55.9792 66.8387 57.0255 64.0182H55.2058C54.8873 64.0182 54.5689 64.2456 54.4552 64.5641C52.2033 70.6145 50.6111 74.2994 52.8174 74.6179C53.2041 74.6634 53.5908 74.6634 53.9548 74.5951C53.9548 74.5951 56.2976 71.5244 58.0718 69.318H57.1392C56.4341 70.2961 55.2513 71.7973 53.9548 73.3441Z" fill="white"/>
<path d="M66.6531 69.318C66.3119 69.591 65.2656 70.2961 63.9918 71.2287C63.9463 71.2742 63.9008 71.2969 63.8553 71.3424C63.8781 71.0922 63.8553 70.8875 63.7871 70.7055C63.6051 70.0914 63.1502 69.5455 62.2859 69.5C64.697 67.6121 65.4931 66.0426 65.2201 65.292C65.0154 64.7233 63.5142 62.6762 59.6246 65.5194C55.9624 68.1807 57.3727 70.1596 58.0551 70.5918C58.0778 70.5918 58.1006 70.5918 58.1233 70.6146C58.1916 70.1141 58.4645 69.6365 58.7375 69.2498C58.7375 69.227 58.7602 69.2043 58.7602 69.2043C58.8967 68.9768 59.0787 68.7494 59.3289 68.4992V68.4764C59.3971 68.4309 59.4199 68.3854 59.4653 68.3627C59.8065 68.0442 60.216 67.6803 60.7164 67.3164C61.4443 66.7932 62.1039 66.4293 62.6498 66.2246C64.333 65.5649 63.7644 66.7705 62.1949 68.0442C60.8529 69.1588 58.328 71.1832 58.1233 71.3652C58.1233 71.3652 58.1006 71.3652 58.1006 71.3879L58.3963 72.0703C58.3963 72.0703 61.9674 70.0914 61.0803 72.8209C61.0803 72.8664 61.0576 72.8892 61.0576 72.9347C61.0348 72.9801 61.0348 73.0256 61.0348 73.0484C61.0348 73.0484 61.0348 73.0484 61.0348 73.0711H61.0121C61.0121 73.0939 61.0121 73.1394 60.9893 73.1621C60.9893 73.2076 60.9666 73.2531 60.9438 73.3213C60.9211 73.4123 60.8756 73.5261 60.8529 73.6398C59.1469 75.0045 57.5547 76.4148 56.9405 77.4384C56.0079 78.9396 56.5993 80.2816 58.3053 80.1679C60.5344 80.0542 61.74 78.4392 62.6271 75.5959C62.9228 74.5724 63.2639 73.4806 63.6279 72.3887C63.6279 72.3433 63.6506 72.2978 63.6734 72.275V72.2523C65.3793 71.0012 66.9488 69.9322 67.6994 69.318H66.6531ZM57.9869 79.2581C57.3045 79.5083 57.077 78.7122 57.3727 78.1435C57.8731 77.1427 59.0787 75.9371 60.5117 74.7316C60.4207 75.0273 60.3297 75.323 60.2387 75.5959C59.6473 77.3701 58.9194 78.9624 57.9869 79.2581Z" fill="white"/>
<path d="M76.1603 69.318C75.8191 69.591 74.7728 70.2961 73.499 71.2287C73.4535 71.2742 73.408 71.2969 73.3625 71.3424C73.3853 71.0922 73.3625 70.8875 73.2943 70.7055C73.1123 70.0914 72.6574 69.5455 71.793 69.5C74.2041 67.6121 75.0002 66.0426 74.7273 65.292C74.5226 64.7233 73.0213 62.6762 69.1317 65.5194C65.4696 68.1807 66.8799 70.1596 67.5623 70.5918C67.585 70.5918 67.6077 70.5918 67.6305 70.6146C67.6987 70.1141 67.9717 69.6365 68.2446 69.2498C68.2446 69.227 68.2674 69.2043 68.2674 69.2043C68.4039 68.9768 68.5858 68.7494 68.836 68.4992V68.4764C68.9043 68.4309 68.927 68.3854 68.9725 68.3627C69.3137 68.0442 69.7231 67.6803 70.2235 67.3164C70.9514 66.7932 71.6111 66.4293 72.157 66.2246C73.8402 65.5649 73.2715 66.7705 71.702 68.0442C70.36 69.1588 67.8352 71.1832 67.6305 71.3652C67.6305 71.3652 67.6077 71.3652 67.6077 71.3879L67.9034 72.0703C67.9034 72.0703 71.4746 70.0914 70.5875 72.8209C70.5875 72.8664 70.5647 72.8892 70.5647 72.9347C70.542 72.9801 70.542 73.0256 70.542 73.0484C70.542 73.0484 70.542 73.0484 70.542 73.0711H70.5192C70.5192 73.0939 70.5192 73.1394 70.4965 73.1621C70.4965 73.2076 70.4738 73.2531 70.451 73.3213C70.4283 73.4123 70.3828 73.5261 70.36 73.6398C68.6541 75.0045 67.0618 76.4148 66.4477 77.4384C65.5151 78.9396 66.1065 80.2816 67.8125 80.1679C70.0416 80.0542 71.2471 78.4392 72.1342 75.5959C72.4299 74.5724 72.7711 73.4806 73.135 72.3887C73.135 72.3433 73.1578 72.2978 73.1805 72.275V72.2523C74.8865 71.0012 76.456 69.9322 77.2066 69.318H76.1603ZM67.494 79.2581C66.8116 79.5083 66.5842 78.7122 66.8799 78.1435C67.3803 77.1427 68.5858 75.9371 70.0188 74.7316C69.9278 75.0273 69.8369 75.323 69.7459 75.5959C69.1545 77.3701 68.4266 78.9624 67.494 79.2581Z" fill="white"/>
<path d="M87.0777 69.318H86.0314C85.6674 69.591 84.6211 70.2961 83.3701 71.2287C84.0297 69.2043 84.6894 67.2709 85.2125 65.7924C85.8039 64.2911 86.6 64.0182 86.6 64.0182H83.8705C83.5748 64.0182 83.3018 64.2229 83.1654 64.4958H83.1426C83.1426 64.5186 83.1426 64.5413 83.1199 64.5641C83.1199 64.5641 83.1199 64.5868 83.0971 64.5868C83.0971 64.6323 83.0744 64.7006 83.0516 64.7461C81.3002 69.6592 79.6397 73.3441 78.3204 72.8892C77.4106 72.5707 78.0475 69.409 80.0719 64.0182H78.2522C77.911 64.0182 77.5926 64.2456 77.4788 64.5641C75.227 70.6145 74.6583 74.072 76.8419 74.5951C77.7518 74.8226 78.9801 74.8226 80.8453 71.6154C80.777 71.8428 80.686 72.093 80.6178 72.3205C80.5496 72.548 80.4586 72.8437 80.3676 73.1621C80.2994 73.3213 80.2539 73.4806 80.2084 73.6398C78.5024 75.0045 76.9329 76.4148 76.296 77.4384C75.3635 78.9396 75.9776 80.2816 77.6608 80.1679C79.8899 80.0542 81.0955 78.4392 81.9826 75.5959C82.301 74.5269 82.665 73.3896 83.0289 72.2523C84.7348 71.0012 86.3043 69.9322 87.0777 69.318ZM77.3651 79.2581C76.66 79.5083 76.4325 78.7122 76.7282 78.1435C77.2514 77.1427 78.4342 75.9371 79.8672 74.7316C79.7762 75.0273 79.6852 75.323 79.5942 75.5959H79.617C79.0028 77.3701 78.275 78.9624 77.3651 79.2581Z" fill="white"/>
<path d="M86.391 84.68C78.411 83.2385 65.6173 81.7455 62.4511 88.5413C61.164 91.2957 62.3996 93.561 64.6134 93.561C63.8669 89.8284 67.1361 87.2285 73.4171 86.379C72.5934 88.9017 71.3578 92.8145 70.1736 96.5985C69.6588 96.5728 69.1182 96.5728 68.5777 96.5728C67.6252 96.547 66.6985 96.9331 66.0292 97.6539L65.5144 98.1945H69.6588C68.3717 102.287 67.2648 105.866 67.0331 106.818C66.3639 109.572 67.1104 110.705 69.5044 110.37C69.2984 109.289 70.8429 103.883 72.6191 98.1945H77.3814C78.3853 98.1945 79.312 97.5252 79.5179 96.547C79.5179 96.4441 79.5437 96.3668 79.5437 96.2639C77.4843 96.5728 75.5022 96.6242 73.134 96.6242C74.3696 92.6857 75.6824 88.8502 76.5319 86.379C76.5576 86.276 76.6091 86.1988 76.6606 86.1216C79.8011 85.9929 83.5079 86.2246 87.6523 86.8681C87.7296 86.8681 87.781 86.8424 87.8068 86.7909C88.0642 85.7612 87.4207 84.8602 86.391 84.68Z" fill="#A74F98"/>
<path d="M97.4294 98.3232C98.9739 93.5867 96.6571 92.7115 95.7304 92.5828C94.5463 92.4026 92.9761 93.0719 92.487 94.359C92.3583 94.3847 92.2553 94.4105 92.1523 94.4362C91.8434 94.5134 91.5603 94.6679 91.3028 94.8738C91.0454 95.0797 90.8137 95.3372 90.6335 95.6203C90.5821 95.6975 90.5563 95.749 90.5048 95.8263C90.4791 95.8777 90.4276 95.9292 90.4019 95.9807C90.4019 96.0064 90.3761 96.0579 90.3504 96.0837C89.7326 96.3668 89.0376 96.5985 88.3425 96.753C88.9346 93.3808 87.0297 92.7115 86.2317 92.5828C85.0476 92.3768 83.4516 93.0719 82.9625 94.359C82.8595 94.3847 82.7566 94.3847 82.6279 94.4362C82.3447 94.5134 82.0615 94.6679 81.8041 94.8738C81.5467 95.0797 81.315 95.3114 81.1091 95.6203C81.0833 95.6975 81.0319 95.749 81.0061 95.8263C80.9546 95.8777 80.9289 95.9292 80.9032 95.9807C80.6457 96.4441 80.3368 96.9589 80.1309 97.551C78.6379 101.747 79.6418 103.446 80.62 104.141C80.6457 104.141 80.6457 104.167 80.6457 104.167C80.7744 104.27 80.9546 104.373 81.1348 104.45C81.2635 104.501 81.3665 104.527 81.4695 104.578L81.4952 104.527C82.9368 104.81 85.5882 104.012 87.4158 99.7133C87.7247 98.9668 87.9564 98.2975 88.1109 97.7054C88.6772 97.6024 89.2435 97.4222 89.7583 97.2421C89.7068 97.345 89.6811 97.448 89.6296 97.551C88.1366 101.747 89.1663 103.446 90.1445 104.141C90.1445 104.141 90.1445 104.167 90.1702 104.167C90.2732 104.27 90.4534 104.373 90.6593 104.45C90.7623 104.501 90.891 104.527 90.9939 104.578V104.527C92.4612 104.81 95.0869 104.012 96.9146 99.7133C97.0175 99.4816 97.069 99.2757 97.1462 99.0697C97.172 99.0697 97.172 99.0697 97.172 99.0697C97.8413 99.1984 98.562 99.1984 99.2571 99.1212L99.5145 98.3747C98.7165 98.4262 98.0472 98.4004 97.4294 98.3232ZM85.7941 93.9986C86.0773 94.3075 86.1287 95.3886 85.6911 96.9332C84.8931 96.8044 84.2238 96.4955 83.8377 95.955C84.0951 95.5173 84.3783 95.157 84.6615 94.8738C84.4555 94.6679 84.2238 94.5134 83.9407 94.4105C84.3783 93.7412 85.305 93.4065 85.7941 93.9986ZM84.8931 99.1212C83.8377 101.464 82.6536 102.957 81.6497 103.214C81.2893 102.416 81.6239 100.357 82.6279 98.1688C82.8595 97.6282 83.0912 97.1648 83.3486 96.7272C83.9149 97.2935 84.6357 97.6282 85.4337 97.7826C85.2793 98.1945 85.0991 98.6321 84.8931 99.1212ZM95.3186 93.9986C95.6275 94.359 95.6275 95.6203 95.0354 97.448C94.0572 96.8559 93.5681 96.1094 93.4137 95.8263C93.6711 95.4659 93.9028 95.1312 94.1602 94.8738C93.98 94.6679 93.7226 94.5134 93.4394 94.4105C93.877 93.7412 94.8295 93.4065 95.3186 93.9986ZM94.4176 99.1212C93.3622 101.464 92.1781 102.957 91.1484 103.214C90.788 102.416 91.1484 100.357 92.1523 98.1688C92.3583 97.6539 92.5899 97.1906 92.8473 96.753C93.3622 97.3708 94.0057 97.9113 94.7522 98.2975C94.6493 98.5549 94.5463 98.838 94.4176 99.1212Z" fill="#A74F98"/>
<path d="M109.431 91.2957L109.817 90.0086H104.695C104.952 89.2363 105.184 88.5413 105.415 87.9235C106.085 86.2246 106.986 85.9157 106.986 85.9157H103.897C103.51 85.9157 103.15 86.1731 103.021 86.5592C102.712 87.5374 102.326 88.7215 101.914 90.0086H96.38L95.9939 91.27H101.503C100.01 95.9292 98.3106 101.309 97.9503 102.828C97.281 105.557 97.7186 106.715 100.138 106.355C99.8294 104.836 102.275 97.0619 104.257 91.27H109.431V91.2957Z" fill="#A74F98"/>
<path d="M129.555 101.954C128.551 107.334 121.498 118.969 118.023 123.371C119.439 119.535 121.035 113.769 122.013 110.243C122.27 109.264 122.245 108.286 121.241 108.286C121.189 108.286 121.138 108.312 121.086 108.312V108.286C120.546 108.286 120.031 108.569 119.748 109.058C116.376 114.722 110.867 123.809 108.807 126.383C109.091 125.096 109.503 123.448 110.043 121.595C111.691 116.112 114.085 109.11 115.603 104.785C115.706 104.476 115.809 104.193 115.912 103.936C116.633 102.185 117.56 101.851 117.56 101.851H114.213C114.188 101.851 114.162 101.877 114.162 101.877V101.851C109.219 101.851 105.873 103.498 103.273 106.51C100.905 109.264 99.4117 112.817 99.7206 116.086C100.004 118.66 101.626 119.87 103.453 118.969C101.265 116.987 102.475 112.25 104.998 108.621C106.774 106.047 109.58 104.271 112.746 104.09C112.669 104.322 112.592 104.554 112.514 104.785C110.944 109.599 108.627 116.833 107.16 121.595C106.594 123.422 106.182 124.812 106.053 125.353C105.384 128.107 106.13 129.24 108.524 128.905C109.451 128.905 113.647 122.83 117.457 116.73C116.582 119.561 115.629 122.547 114.728 124.915C114.342 125.919 114.419 126.923 115.449 126.923H116.71C118.873 126.898 129.041 111.71 131.048 104.065C131.048 104.065 131.332 102.082 129.555 101.954Z" fill="#6EC7DC"/>
<path d="M147.318 111.066H145.774C145.001 111.066 141.784 115.623 139.776 119.69C140.342 117.631 141.089 115.262 141.861 112.971C142.505 111.35 143.38 111.066 143.38 111.066H140.419C140.162 111.066 139.879 111.195 139.724 111.401C139.699 111.401 139.699 111.427 139.699 111.427C139.673 111.452 139.647 111.504 139.621 111.53C138.875 112.817 137.794 113.846 136.687 114.516C136.867 111.813 135.194 111.221 134.473 111.118C133.289 110.912 131.693 111.607 131.204 112.894C131.101 112.92 130.998 112.92 130.869 112.971C130.586 113.048 130.303 113.203 130.045 113.409C129.788 113.615 129.556 113.846 129.35 114.155C129.325 114.233 129.273 114.284 129.247 114.361C129.196 114.413 129.17 114.464 129.145 114.516C128.887 114.979 128.578 115.494 128.372 116.086C126.879 120.282 127.883 121.981 128.861 122.676C128.887 122.676 128.887 122.702 128.887 122.702C129.016 122.805 129.196 122.908 129.376 122.985C129.505 123.036 129.608 123.062 129.711 123.114L129.737 123.062C131.178 123.345 133.83 122.547 135.657 118.248C136.069 117.219 136.352 116.343 136.507 115.597C137.356 115.134 138.18 114.49 138.901 113.718C137.82 117.116 136.867 120.256 136.584 121.363C135.915 124.092 136.378 125.224 138.772 124.89C139.338 121.955 143.097 115.571 145.001 113.1C144.718 113.846 144.255 114.747 143.92 115.7C143.508 116.935 143.508 119.021 145.722 118.66C145.413 117.09 146.932 113.795 148.142 112.353C148.837 111.581 147.885 111.066 147.318 111.066ZM134.035 112.534C134.319 112.843 134.37 113.872 133.958 115.365C133.186 115.339 132.542 115.056 132.105 114.413C132.362 114.027 132.62 113.692 132.903 113.409C132.697 113.203 132.465 113.048 132.182 112.946C132.62 112.276 133.546 111.942 134.035 112.534ZM133.135 117.656C132.079 119.999 130.895 121.492 129.891 121.749C129.531 120.951 129.865 118.892 130.869 116.704C131.101 116.163 131.333 115.7 131.59 115.262C132.208 115.854 132.929 116.189 133.701 116.24C133.546 116.678 133.366 117.141 133.135 117.656Z" fill="#6EC7DC"/>
<path d="M151.249 119.87C152.484 120.102 154.389 119.69 155.934 116.858C158.431 112.276 155.857 111.066 155.084 111.066C153.72 111.066 152.922 112.688 150.914 116.369C152.021 112.868 153.308 109.033 154.235 106.459C154.904 104.76 155.779 104.451 155.779 104.451H152.716C152.33 104.451 151.97 104.708 151.841 105.094C150.296 109.779 147.259 119.278 146.744 121.363C146.075 124.092 146.538 125.25 148.932 124.89C148.803 124.22 149.215 122.29 149.885 119.87C150.245 120.514 150.888 121.466 151.558 122.084C152.51 122.985 155.393 124.272 156.886 120.565C154.492 122.084 152.407 120.874 151.249 119.87ZM154.673 112.096C154.981 112.431 154.75 113.924 153.643 115.854C152.536 117.759 151.378 118.866 150.554 118.66C150.528 118.66 150.477 118.66 150.451 118.634C153.128 114.027 154.286 111.633 154.673 112.096Z" fill="#6EC7DC"/>
<path d="M81.139 130.885C79.2396 135.895 76.2906 143.9 74.6589 149.785C75.7386 149.721 76.8114 149.57 77.8671 149.335C77.6504 149.607 77.7651 150.155 77.3147 150.487C77.0725 150.661 75.8827 150.992 74.2595 151.294C73.4096 154.608 72.9847 157.438 73.3119 159.108C70.5287 159.108 70.1207 156.287 71.0513 151.753C69.3868 151.943 67.7079 151.976 66.0372 151.851C60.8447 157.965 54.5218 162.695 49.6947 162.474C49.1798 162.498 48.6656 162.413 48.1862 162.223H48.1353C47.8119 162.077 47.5225 161.866 47.2854 161.602C42.9342 156.635 51.4709 142.392 61.6435 141.835C64.8984 141.725 66.6831 143.501 65.8928 145.927C60.6747 141.533 46.7712 156.525 49.4738 159.525C49.7011 159.718 49.9658 159.863 50.2514 159.95C50.2802 159.956 50.3086 159.965 50.3363 159.975H50.4213C50.618 160.007 50.817 160.023 51.0162 160.022C51.4801 160.014 51.9423 159.964 52.3972 159.873C55.3122 159.121 59.5147 156.027 63.6619 151.375C63.2003 151.221 62.769 150.988 62.3871 150.686C59.6082 148.349 62.4636 145.829 63.8744 146.067C63.5047 147.474 64.2993 148.396 65.6548 148.987C65.9735 148.587 66.2922 148.179 66.6066 147.763C72.0116 140.582 77.6546 128.73 77.6546 128.73H82.9279C82.9279 128.73 81.9038 129.049 81.139 130.885ZM76.0399 136.158C73.9056 140.462 71.4348 144.591 68.6505 148.506C68.3828 148.872 68.1109 149.233 67.8389 149.594C69.0388 149.788 70.2522 149.888 71.4677 149.892C72.4493 146.08 74.132 141.334 76.0527 136.158H76.0399Z" fill="#6EC7DC"/>
<path d="M86.6587 153.142H87.6233C85.4349 155.879 82.1758 159.308 79.7154 159.308C78.7339 159.308 75.6702 158.738 78.5002 152.178C80.833 146.76 83.7947 146.777 84.9887 147.474C85.2058 147.046 85.4756 146.648 85.7918 146.288H88.5836C86.4292 147.69 85.2649 150.763 85.2607 151.124C84.2706 150.746 84.1941 149.709 84.5086 148.634C83.4463 148.685 82.1545 150.236 81.0072 152.781C79.7919 155.483 79.7919 157.251 80.1786 157.727C81.0964 158.845 84.3471 156.168 86.6587 153.142Z" fill="#A85099"/>
<path d="M99.4786 153.146C97.4645 155.658 94.8045 159.121 94.8045 159.121C94.3832 159.199 93.951 159.199 93.5297 159.121C92.0255 158.908 92.068 157.332 92.8881 154.634C91.0099 157.999 89.6757 159.227 88.1459 159.308C87.1431 159.355 84.1389 158.738 86.9689 152.178C89.5185 146.305 92.6884 146.819 93.6487 147.665C93.9491 147.914 94.1838 148.233 94.332 148.593C94.4802 148.954 94.5374 149.346 94.4985 149.734C94.728 149.25 94.966 148.748 95.2124 148.222C95.213 148.212 95.213 148.202 95.2124 148.192L95.3696 147.767C95.4341 147.591 95.5493 147.438 95.7005 147.328C95.8518 147.217 96.0324 147.154 96.2195 147.146H99.0877C99.0877 147.146 98.1826 147.448 97.5155 149.156C96.7294 151.23 96.0368 153.019 95.5693 154.434C95.5603 154.464 95.549 154.494 95.5353 154.523C95.4164 154.874 95.3144 155.206 95.2294 155.517C95.2014 155.595 95.1787 155.675 95.1614 155.755C95.0977 155.981 95.0509 156.18 95.0127 156.372C94.9876 156.45 94.9705 156.532 94.9617 156.614C94.8852 156.979 94.83 157.34 94.7917 157.693C96.2577 155.938 97.609 154.243 98.3908 153.134L99.4786 153.146ZM93.585 151.608C94.0821 149.56 93.7039 148.714 93.1855 148.634C92.0892 148.476 90.704 150.07 89.4845 152.772C88.2649 155.475 88.2097 157.447 88.5879 157.872C89.391 158.836 91.0694 156.66 93.585 151.608Z" fill="#A85099"/>
<path d="M111.661 142.532C109.719 148.056 106.005 159.134 106.379 160.986C103.974 161.326 103.52 160.183 104.191 157.442C104.365 156.728 104.837 155.152 105.44 153.193C103.133 157.672 101.654 159.231 99.9163 159.304C98.9135 159.35 95.9093 158.734 98.7392 152.173C101.289 146.301 104.527 146.79 105.483 147.635C105.774 147.885 105.999 148.202 106.138 148.559C106.277 148.917 106.327 149.303 106.282 149.683C106.532 149.152 106.796 148.6 107.063 148.022C107.867 145.498 108.678 142.986 109.265 141.181C109.327 140.995 109.445 140.834 109.602 140.718C109.76 140.603 109.949 140.539 110.144 140.535H113.221C113.221 140.535 112.316 140.841 111.661 142.532ZM105.347 151.608C105.848 149.56 105.47 148.714 104.947 148.634C103.855 148.476 102.466 150.07 101.251 152.772C100.035 155.475 99.9758 157.447 100.35 157.872C101.153 158.836 102.814 156.66 105.347 151.608Z" fill="#A85099"/>
<path d="M118.834 153.142H119.803C117.614 155.879 114.351 159.312 111.895 159.312C110.909 159.312 107.845 158.738 110.675 152.178C113.225 146.305 116.442 146.841 117.436 147.639C117.817 147.936 118.099 148.342 118.246 148.802C118.393 149.262 118.398 149.756 118.26 150.219C117.925 151.782 116.484 153.342 112.927 153.389C111.984 155.738 112.001 157.285 112.354 157.719C113.272 158.849 116.522 156.168 118.834 153.142ZM113.31 152.547C116.599 152.547 117.427 150.763 117.525 150.053C117.644 149.165 117.266 148.689 116.905 148.638C115.817 148.489 114.483 149.985 113.289 152.547H113.31Z" fill="#A85099"/>
<path d="M135.002 153.142H136.111C134.101 155.653 131.437 159.091 131.437 159.091C131.004 159.185 130.556 159.192 130.12 159.112C127.821 158.789 129.461 154.438 131.717 148.438C130.307 150.512 127.948 154.429 126.389 157.034C126.314 157.164 126.206 157.271 126.076 157.346C125.947 157.421 125.799 157.46 125.65 157.459H124.638C124.508 157.46 124.378 157.43 124.261 157.373C124.144 157.315 124.041 157.231 123.961 157.128C123.881 157.024 123.827 156.903 123.801 156.775C123.776 156.647 123.78 156.515 123.814 156.388C124.345 154.417 125.229 151.225 126.015 149.101C124.099 151.54 120.189 157.99 119.641 160.973C117.236 161.309 116.781 160.166 117.453 157.429C117.776 156.116 119.085 151.905 120.398 147.796C120.459 147.605 120.578 147.439 120.739 147.319C120.9 147.199 121.094 147.133 121.294 147.129H124.213C124.213 147.129 123.364 147.414 122.679 149.037C121.915 151.378 121.162 153.783 120.589 155.836C122.624 151.765 125.96 147.142 126.729 147.138H128.28C128.411 147.137 128.54 147.169 128.656 147.231C128.771 147.292 128.87 147.382 128.942 147.491C129.015 147.6 129.059 147.725 129.071 147.856C129.083 147.986 129.062 148.118 129.011 148.238C128.45 149.708 127.855 151.578 127.337 153.295C129.555 149.73 132.066 146.037 132.589 146.037H134.135C134.266 146.036 134.395 146.068 134.51 146.129C134.625 146.19 134.723 146.28 134.795 146.389C134.867 146.498 134.91 146.623 134.921 146.753C134.932 146.883 134.91 147.014 134.858 147.133C133.689 150.24 132.555 153.121 131.951 155.13C131.768 155.686 131.626 156.254 131.526 156.83C131.521 156.855 131.521 156.881 131.526 156.907C131.475 157.17 131.441 157.425 131.412 157.68C132.869 155.934 134.212 154.247 134.989 153.146L135.002 153.142Z" fill="#A85099"/>
<path d="M142.744 156.482C142.319 157.757 141.928 159.031 141.563 160.255C140.56 163.468 139.2 165.29 136.681 165.439C134.76 165.554 134.076 164.045 135.134 162.333C135.848 161.181 137.624 159.58 139.562 158.029L139.727 157.497C139.834 157.132 139.936 156.818 140.029 156.541L140.275 155.759C138.172 159.371 136.787 159.388 135.737 159.133C133.273 158.534 133.931 154.612 136.472 147.775C136.537 147.599 136.652 147.447 136.803 147.336C136.955 147.226 137.135 147.163 137.322 147.155H139.37C137.084 153.261 136.396 156.839 137.411 157.196C138.89 157.706 140.76 153.541 142.753 147.988C142.774 147.928 142.795 147.86 142.816 147.796C142.822 147.783 142.829 147.77 142.838 147.758L142.863 147.686C142.937 147.53 143.052 147.398 143.196 147.305C143.34 147.211 143.507 147.159 143.679 147.155H146.756C146.756 147.155 145.855 147.456 145.188 149.16C144.597 150.839 143.845 153.027 143.093 155.309C144.529 154.259 145.697 153.448 146.105 153.142H147.287C146.458 153.843 144.678 155.063 142.744 156.482ZM138.877 160.255L139.183 159.269C137.569 160.633 136.209 161.997 135.627 163.14C135.295 163.782 135.559 164.679 136.345 164.415C137.386 164.062 138.198 162.261 138.877 160.255Z" fill="#A85099"/>
<path d="M92.7393 137.543C91.0014 139.714 88.6941 142.702 88.6941 142.702C88.3289 142.77 87.9544 142.77 87.5893 142.702C85.5496 142.413 86.8032 139.217 88.7875 133.927C87.0369 135.941 83.1913 141.678 82.6984 144.299C80.6248 144.588 80.2296 143.602 80.8075 141.236C81.088 140.101 82.2182 136.464 83.357 132.907C83.4131 132.744 83.5175 132.602 83.6564 132.499C83.7953 132.397 83.9621 132.339 84.1346 132.333H86.6842C86.6842 132.333 85.9321 132.58 85.3584 133.982C84.6573 136.107 83.9732 138.312 83.4675 140.152C85.3499 136.566 88.7026 132.342 89.3824 132.342H90.7252C90.8382 132.342 90.9494 132.37 91.0489 132.424C91.1483 132.477 91.233 132.555 91.2953 132.649C91.3576 132.743 91.3955 132.851 91.4058 132.964C91.4161 133.077 91.3983 133.19 91.3541 133.294C90.5297 135.465 89.8074 137.318 89.3442 138.724C89.2941 138.851 89.2515 138.98 89.2167 139.111C89.1742 139.238 89.136 139.37 89.102 139.489C89.0887 139.527 89.0774 139.565 89.068 139.604C88.9644 139.946 88.8821 140.293 88.8215 140.645C88.7706 140.917 88.7323 141.18 88.7026 141.44C89.9773 139.931 91.1246 138.465 91.796 137.522L92.7393 137.543Z" fill="#A74F98"/>
<path d="M99.1429 137.539H99.9928C98.1019 139.902 95.2846 142.868 93.16 142.868C92.3102 142.868 89.6586 142.375 92.1062 136.706C94.1246 132.032 96.6826 132.032 97.7152 132.64C97.905 132.271 98.1375 131.926 98.4078 131.611H100.821C98.9644 132.827 97.9574 135.482 97.9489 135.793C97.099 135.465 97.0268 134.569 97.2988 133.642C96.3852 133.685 95.2676 135.028 94.2733 137.229C93.2237 139.562 93.2237 141.091 93.5594 141.504C94.3455 142.468 97.1543 140.157 99.1429 137.539Z" fill="#A74F98"/>
<path d="M106.473 137.539H107.323C105.436 139.906 102.615 142.872 100.49 142.872C99.6401 142.872 96.9885 142.375 99.4361 136.706C101.624 131.628 104.42 132.092 105.279 132.784C105.608 133.04 105.853 133.39 105.98 133.787C106.108 134.184 106.112 134.611 105.993 135.011C105.699 136.366 104.454 137.713 101.382 137.751C100.566 139.783 100.579 141.121 100.885 141.495C101.68 142.472 104.488 140.157 106.49 137.539H106.473ZM101.692 137.025C104.535 137.025 105.249 135.482 105.334 134.866C105.436 134.101 105.113 133.689 104.799 133.647C103.864 133.515 102.712 134.807 101.692 137.025Z" fill="#A74F98"/>
</g>
<defs>
<clipPath id="clip0_98705_41">
<rect width="236.962" height="195.269" fill="white"/>
</clipPath>
</defs>
</svg>
