<svg width="24" height="23" viewBox="0 0 24 23" fill="none" xmlns="http://www.w3.org/2000/svg">
<mask id="mask0_2_65" style="mask-type:alpha" maskUnits="userSpaceOnUse" x="0" y="0" width="24" height="23">
<g clip-path="url(#clip0_2_65)">
<path d="M18.7085 14.2479C18.2376 13.7576 17.6697 13.4955 17.0677 13.4955C16.4707 13.4955 15.8979 13.7527 15.4076 14.243L13.8736 15.7721C13.7474 15.7042 13.6212 15.6411 13.4998 15.578C13.3251 15.4906 13.16 15.4081 13.0193 15.3207C11.5824 14.4081 10.2766 13.2188 9.02416 11.6799C8.41737 10.913 8.0096 10.2673 7.71349 9.61201C8.11155 9.24794 8.48047 8.86931 8.83969 8.50523C8.97561 8.36931 9.11153 8.22854 9.24745 8.09262C10.2669 7.07321 10.2669 5.75284 9.24745 4.73344L7.92223 3.40821C7.77174 3.25773 7.61641 3.10239 7.47078 2.94705C7.17952 2.64608 6.8737 2.33541 6.55817 2.04415C6.0873 1.57814 5.5242 1.33057 4.93197 1.33057C4.33975 1.33057 3.76694 1.57814 3.28151 2.04415C3.27665 2.049 3.27665 2.049 3.2718 2.05386L1.62134 3.71889C0.999984 4.34024 0.64562 5.09751 0.567951 5.97614C0.451447 7.3936 0.868918 8.71397 1.1893 9.57803C1.9757 11.6994 3.15044 13.6654 4.90285 15.7721C7.02904 18.3109 9.58726 20.3158 12.5095 21.7284C13.626 22.2575 15.1163 22.8837 16.7813 22.9905C16.8833 22.9953 16.9901 23.0002 17.0872 23.0002C18.2085 23.0002 19.1502 22.5973 19.8881 21.7963C19.893 21.7866 19.9027 21.7818 19.9075 21.7721C20.1599 21.4662 20.4512 21.1895 20.757 20.8934C20.9658 20.6944 21.1793 20.4857 21.3881 20.2672C21.8687 19.7672 22.1211 19.1847 22.1211 18.5876C22.1211 17.9857 21.8638 17.408 21.3735 16.9226L18.7085 14.2479ZM20.4463 19.3595C20.4415 19.3595 20.4415 19.3643 20.4463 19.3595C20.257 19.5633 20.0629 19.7478 19.8541 19.9517C19.5386 20.2527 19.2182 20.5682 18.9172 20.9226C18.427 21.4468 17.8493 21.6944 17.092 21.6944C17.0192 21.6944 16.9415 21.6944 16.8687 21.6895C15.427 21.5973 14.0872 21.0342 13.0824 20.5536C10.3348 19.2235 7.92223 17.3352 5.9174 14.942C4.26208 12.9469 3.1553 11.1023 2.4223 9.12173C1.97085 7.91301 1.8058 6.97127 1.87861 6.08293C1.92716 5.51498 2.1456 5.04411 2.54851 4.6412L4.20383 2.98589C4.44169 2.76259 4.69411 2.64123 4.94168 2.64123C5.2475 2.64123 5.49507 2.82569 5.65041 2.98103C5.65527 2.98589 5.66012 2.99074 5.66497 2.99559C5.96109 3.27229 6.24264 3.55869 6.53875 3.86452C6.68923 4.01985 6.84457 4.17519 6.99991 4.33538L8.32514 5.66061C8.83969 6.17517 8.83969 6.65089 8.32514 7.16544C8.18436 7.30622 8.04844 7.44699 7.90766 7.58291C7.4999 8.00038 7.11156 8.38873 6.68923 8.76736C6.67952 8.77707 6.66982 8.78193 6.66496 8.79164C6.24749 9.20911 6.32516 9.61687 6.41254 9.89356C6.41739 9.90813 6.42225 9.92269 6.4271 9.93725C6.77176 10.7722 7.25719 11.5586 7.99504 12.4955L7.9999 12.5003C9.33969 14.1508 10.7523 15.4372 12.3105 16.4226C12.5095 16.5488 12.7134 16.6508 12.9076 16.7478C13.0824 16.8352 13.2474 16.9177 13.3882 17.0051C13.4076 17.0148 13.427 17.0294 13.4464 17.0391C13.6115 17.1216 13.7668 17.1605 13.927 17.1605C14.3299 17.1605 14.5823 16.908 14.6649 16.8255L16.325 15.1653C16.4901 15.0003 16.7522 14.8013 17.058 14.8013C17.359 14.8013 17.6066 14.9906 17.7571 15.1556C17.7619 15.1605 17.7619 15.1605 17.7668 15.1653L20.4415 17.8401C20.9415 18.3352 20.9415 18.8449 20.4463 19.3595Z" fill="black"/>
<path d="M12.961 5.47092C14.2328 5.68451 15.3881 6.28644 16.3105 7.20876C17.2328 8.13108 17.8299 9.2864 18.0483 10.5582C18.1017 10.8786 18.3784 11.1019 18.6939 11.1019C18.7328 11.1019 18.7667 11.0971 18.8056 11.0922C19.1648 11.034 19.4027 10.6942 19.3444 10.3349C19.0823 8.79612 18.3541 7.39322 17.2425 6.28159C16.1309 5.16995 14.728 4.4418 13.1891 4.17967C12.8299 4.12142 12.495 4.35928 12.4319 4.71365C12.3688 5.06801 12.6018 5.41267 12.961 5.47092Z" fill="black"/>
<path d="M23.5045 10.1458C23.0725 7.61184 21.8784 5.30604 20.0434 3.47111C18.2085 1.63618 15.9027 0.442024 13.3688 0.00999088C13.0144 -0.0531151 12.6794 0.1896 12.6163 0.543965C12.5581 0.903184 12.7959 1.23813 13.1552 1.30124C15.4173 1.68473 17.4804 2.75753 19.1211 4.39343C20.7619 6.03419 21.8298 8.09727 22.2133 10.3594C22.2667 10.6798 22.5434 10.9031 22.8589 10.9031C22.8978 10.9031 22.9317 10.8982 22.9706 10.8933C23.3249 10.84 23.5677 10.5002 23.5045 10.1458Z" fill="black"/>
</g>
</mask>
<g mask="url(#mask0_2_65)">
<rect x="-8.52936" y="-81.5454" width="130.333" height="120.576" fill="white"/>
</g>
<defs>
<clipPath id="clip0_2_65">
<rect width="23" height="23" fill="white" transform="translate(0.53125)"/>
</clipPath>
</defs>
</svg>
