<svg width="116" height="89" viewBox="0 0 116 89" fill="none" xmlns="http://www.w3.org/2000/svg">
<path d="M45.4664 74.0757C45.5317 74.0757 45.584 74.1018 45.6232 74.154C45.6754 74.1932 45.7015 74.2455 45.7015 74.3108V76.2306C45.7015 76.2959 45.6754 76.3547 45.6232 76.4069C45.584 76.4461 45.5317 76.4657 45.4664 76.4657H41.9597C41.8944 76.4657 41.8618 76.4984 41.8618 76.5637V87.5539C41.8618 87.6192 41.8357 87.678 41.7834 87.7303C41.7442 87.7694 41.692 87.789 41.6267 87.789H39.3346C39.2693 87.789 39.2105 87.7694 39.1583 87.7303C39.1191 87.678 39.0995 87.6192 39.0995 87.5539V76.5637C39.0995 76.4984 39.0669 76.4657 39.0016 76.4657H35.5928C35.5275 76.4657 35.4687 76.4461 35.4165 76.4069C35.3773 76.3547 35.3577 76.2959 35.3577 76.2306V74.3108C35.3577 74.2455 35.3773 74.1932 35.4165 74.154C35.4687 74.1018 35.5275 74.0757 35.5928 74.0757H45.4664Z" fill="#4C4C4C"/>
<path d="M51.0035 88.0045C49.9848 88.0045 49.0836 87.7956 48.3 87.3776C47.5294 86.9597 46.9287 86.3785 46.4977 85.6341C46.0667 84.8766 45.8512 84.0081 45.8512 83.0285V78.8362C45.8512 77.8697 46.0667 77.0142 46.4977 76.2698C46.9287 75.5254 47.5294 74.9507 48.3 74.5458C49.0836 74.1279 49.9848 73.9189 51.0035 73.9189C52.0353 73.9189 52.9364 74.1279 53.707 74.5458C54.4906 74.9507 55.0979 75.5254 55.5289 76.2698C55.9599 77.0142 56.1754 77.8697 56.1754 78.8362V83.0285C56.1754 84.0081 55.9599 84.8766 55.5289 85.6341C55.0979 86.3916 54.4906 86.9793 53.707 87.3972C52.9364 87.8021 52.0353 88.0045 51.0035 88.0045ZM51.0035 85.6341C51.7218 85.6341 52.303 85.4055 52.7471 84.9484C53.1911 84.4913 53.4131 83.884 53.4131 83.1265V78.8166C53.4131 78.0591 53.1911 77.4518 52.7471 76.9947C52.3161 76.5245 51.7349 76.2894 51.0035 76.2894C50.2852 76.2894 49.704 76.5245 49.2599 76.9947C48.829 77.4518 48.6135 78.0591 48.6135 78.8166V83.1265C48.6135 83.884 48.829 84.4913 49.2599 84.9484C49.704 85.4055 50.2852 85.6341 51.0035 85.6341Z" fill="#4C4C4C"/>
<path d="M62.2111 87.9457C61.1663 87.9457 60.2521 87.7825 59.4684 87.456C58.6848 87.1164 58.0775 86.6397 57.6465 86.0259C57.2286 85.399 57.0196 84.6741 57.0196 83.8513V83.4203C57.0196 83.355 57.0392 83.3028 57.0784 83.2636C57.1306 83.2114 57.1894 83.1853 57.2547 83.1853H59.488C59.5533 83.1853 59.6056 83.2114 59.6447 83.2636C59.697 83.3028 59.7231 83.355 59.7231 83.4203V83.7142C59.7231 84.2366 59.9647 84.6807 60.448 85.0464C60.9312 85.399 61.5842 85.5753 62.407 85.5753C63.0992 85.5753 63.6151 85.4316 63.9547 85.1443C64.2942 84.8439 64.464 84.4782 64.464 84.0472C64.464 83.7338 64.3595 83.4726 64.1506 83.2636C63.9416 83.0416 63.6543 82.8522 63.2886 82.6955C62.936 82.5257 62.3678 82.2972 61.5842 82.0098C60.7092 81.7094 59.9647 81.4025 59.3509 81.0891C58.7501 80.7756 58.2408 80.3512 57.8228 79.8157C57.418 79.2672 57.2155 78.5945 57.2155 77.7979C57.2155 77.0142 57.418 76.3286 57.8228 75.7409C58.2277 75.1531 58.7893 74.7026 59.5076 74.3891C60.2259 74.0757 61.0553 73.9189 61.9956 73.9189C62.9882 73.9189 63.8698 74.0953 64.6403 74.4479C65.4239 74.8005 66.0313 75.2968 66.4622 75.9368C66.9063 76.5637 67.1283 77.295 67.1283 78.1309V78.4248C67.1283 78.4901 67.1022 78.5488 67.05 78.6011C67.0108 78.6403 66.9585 78.6598 66.8932 78.6598H64.6403C64.575 78.6598 64.5163 78.6403 64.464 78.6011C64.4248 78.5488 64.4052 78.4901 64.4052 78.4248V78.268C64.4052 77.7195 64.1767 77.2559 63.7196 76.8771C63.2755 76.4853 62.6617 76.2894 61.8781 76.2894C61.2642 76.2894 60.781 76.42 60.4284 76.6812C60.0888 76.9424 59.919 77.3016 59.919 77.7587C59.919 78.0852 60.017 78.3595 60.2129 78.5815C60.4218 78.8035 60.7222 79.0059 61.114 79.1888C61.5189 79.3586 62.1393 79.5937 62.9751 79.894C63.9024 80.2336 64.6273 80.534 65.1497 80.7952C65.6852 81.0564 66.1619 81.4482 66.5798 81.9706C67.0108 82.48 67.2263 83.1461 67.2263 83.9689C67.2263 85.1965 66.7757 86.1695 65.8745 86.8879C64.9734 87.5931 63.7522 87.9457 62.2111 87.9457Z" fill="#4C4C4C"/>
<path d="M73.196 87.9457C72.1773 87.9457 71.2827 87.7498 70.5121 87.358C69.7416 86.9532 69.1473 86.3916 68.7294 85.6732C68.3115 84.9549 68.1025 84.1256 68.1025 83.1853V78.6598C68.1025 77.7195 68.3115 76.8902 68.7294 76.1719C69.1473 75.4535 69.7416 74.8985 70.5121 74.5067C71.2827 74.1149 72.1773 73.9189 73.196 73.9189C74.2017 73.9189 75.0832 74.1083 75.8407 74.4871C76.6113 74.8528 77.2055 75.3817 77.6235 76.0739C78.0545 76.753 78.27 77.5432 78.27 78.4444C78.27 78.5619 78.1916 78.6337 78.0349 78.6598L75.7428 78.797H75.7036C75.573 78.797 75.5077 78.7251 75.5077 78.5815C75.5077 77.8893 75.2922 77.3342 74.8612 76.9163C74.4433 76.4984 73.8882 76.2894 73.196 76.2894C72.4908 76.2894 71.9226 76.4984 71.4916 76.9163C71.0737 77.3342 70.8647 77.8893 70.8647 78.5815V83.3028C70.8647 83.9819 71.0737 84.5305 71.4916 84.9484C71.9226 85.3663 72.4908 85.5753 73.196 85.5753C73.8882 85.5753 74.4433 85.3663 74.8612 84.9484C75.2922 84.5305 75.5077 83.9819 75.5077 83.3028C75.5077 83.1591 75.5861 83.0873 75.7428 83.0873L78.0349 83.1853C78.1002 83.1853 78.1524 83.2048 78.1916 83.244C78.2438 83.2832 78.27 83.3289 78.27 83.3812C78.27 84.2823 78.0545 85.079 77.6235 85.7712C77.2055 86.4634 76.6113 86.9989 75.8407 87.3776C75.0832 87.7564 74.2017 87.9457 73.196 87.9457Z" fill="#4C4C4C"/>
<path d="M87.9236 87.789C87.793 87.789 87.7081 87.7237 87.669 87.5931L87.0812 85.6732C87.0551 85.621 87.0225 85.5949 86.9833 85.5949H82.164C82.1248 85.5949 82.0922 85.621 82.0661 85.6732L81.498 87.5931C81.4588 87.7237 81.3739 87.789 81.2433 87.789H78.7553C78.6769 87.789 78.6181 87.7694 78.579 87.7303C78.5398 87.678 78.5333 87.6062 78.5594 87.5148L82.7909 74.2716C82.8301 74.141 82.915 74.0757 83.0456 74.0757H86.1213C86.2519 74.0757 86.3368 74.141 86.376 74.2716L90.6075 87.5148C90.6206 87.5409 90.6271 87.5735 90.6271 87.6127C90.6271 87.7303 90.5553 87.789 90.4116 87.789H87.9236ZM82.7713 83.342C82.7583 83.4203 82.7844 83.4595 82.8497 83.4595H86.2976C86.376 83.4595 86.4021 83.4203 86.376 83.342L84.6128 77.5236C84.5998 77.4714 84.5802 77.4518 84.5541 77.4648C84.528 77.4648 84.5084 77.4844 84.4953 77.5236L82.7713 83.342Z" fill="#4C4C4C"/>
<path d="M99.4409 74.3108C99.4409 74.2455 99.4605 74.1932 99.4996 74.154C99.5519 74.1018 99.6107 74.0757 99.676 74.0757H101.968C102.033 74.0757 102.086 74.1018 102.125 74.154C102.177 74.1932 102.203 74.2455 102.203 74.3108V87.5539C102.203 87.6192 102.177 87.678 102.125 87.7303C102.086 87.7694 102.033 87.789 101.968 87.789H99.7543C99.6237 87.789 99.5323 87.7368 99.48 87.6323L94.4061 79.2476C94.38 79.2084 94.3539 79.1953 94.3277 79.2084C94.3016 79.2084 94.2886 79.2345 94.2886 79.2867L94.3277 87.5539C94.3277 87.6192 94.3016 87.678 94.2494 87.7303C94.2102 87.7694 94.158 87.789 94.0927 87.789H91.8006C91.7353 87.789 91.6765 87.7694 91.6243 87.7303C91.5851 87.678 91.5655 87.6192 91.5655 87.5539V74.3108C91.5655 74.2455 91.5851 74.1932 91.6243 74.154C91.6765 74.1018 91.7353 74.0757 91.8006 74.0757H94.0143C94.1449 74.0757 94.2363 74.1279 94.2886 74.2324L99.3429 82.5779C99.369 82.6171 99.3952 82.6367 99.4213 82.6367C99.4474 82.6237 99.4605 82.591 99.4605 82.5388L99.4409 74.3108Z" fill="#4C4C4C"/>
<path d="M112.528 87.789C112.397 87.789 112.313 87.7237 112.273 87.5931L111.686 85.6732C111.66 85.621 111.627 85.5949 111.588 85.5949H106.768C106.729 85.5949 106.697 85.621 106.671 85.6732L106.102 87.5931C106.063 87.7237 105.978 87.789 105.848 87.789H103.36C103.281 87.789 103.223 87.7694 103.183 87.7303C103.144 87.678 103.138 87.6062 103.164 87.5148L107.395 74.2716C107.435 74.141 107.519 74.0757 107.65 74.0757H110.726C110.856 74.0757 110.941 74.141 110.98 74.2716L115.212 87.5148C115.225 87.5409 115.232 87.5735 115.232 87.6127C115.232 87.7303 115.16 87.789 115.016 87.789H112.528ZM107.376 83.342C107.363 83.4203 107.389 83.4595 107.454 83.4595H110.902C110.98 83.4595 111.007 83.4203 110.98 83.342L109.217 77.5236C109.204 77.4714 109.185 77.4518 109.159 77.4648C109.132 77.4648 109.113 77.4844 109.1 77.5236L107.376 83.342Z" fill="#4C4C4C"/>
<rect width="14.1107" height="18.2939" rx="2" transform="matrix(0.707107 -0.707107 -0.707107 -0.707107 101.538 45.1143)" fill="#EA5B03"/>
<rect x="91.3045" y="14.5962" width="14.1107" height="61.6938" rx="2" transform="rotate(45 91.3045 14.5962)" fill="#4D4D4D"/>
<rect x="105.781" y="29.2256" width="14.1107" height="29.3749" rx="2" transform="rotate(45 105.781 29.2256)" fill="#EA5B03"/>
<rect width="14.1107" height="74.3109" rx="2" transform="matrix(0.707107 -0.707107 -0.707107 -0.707107 52.5458 62.5234)" fill="#4D4D4D"/>
<rect width="14.1107" height="69.9451" rx="2" transform="matrix(0.707107 -0.707107 -0.707107 -0.707107 87.4441 67.6606)" fill="#EA5B03"/>
</svg>
